# xmcd
#
# Track frame offsets: 
#        150
#        19569
#        34150
#        47543
#        64026
#        81881
#        98458
#        111977
#        130818
#        144985
#        161450
#
# Disc length: 2309 seconds
#
# Revision: 0
# Processed by: cddbd v1.5.2PL0 Copyright (c) Steve Scherf et al.
# Submitted via: ExactAudioCopy v0.95b4
#
DISCID=8109030b
DTITLE=Dom Flemons - Dance Tunes, Ballads And Blues
DYEAR=2007
DGENRE=Blues
TTITLE0=Stackolee
TTITLE1=Viper Mad
TTITLE2=Shake It and Break It
TTITLE3=Dom Blues
TTITLE4=Police Sergeant Blues
TTITLE5=Earl King
TTITLE6=My Little Lady
TTITLE7=Looks Like Another Lonely Moon
TTITLE8=Take Me Back
TTITLE9=Night Woman Blues
TTITLE10=Fox Chase
EXTD=
EXTT0=
EXTT1=
EXTT2=
EXTT3=
EXTT4=
EXTT5=
EXTT6=
EXTT7=
EXTT8=
EXTT9=
EXTT10=
PLAYORDER=
